# Blender 3.6.0
# www.blender.org
o Cylinder.002
v -0.254244 -0.210354 -0.075000 0.0000 0.0000 1.0000
v 0.313094 -0.244331 0.095000 1.0000 1.0000 1.0000
v 0.000000 0.230010 -0.075000 0.0000 1.0000 0.0000
v -0.313094 -0.244331 0.095000 1.0000 1.0000 1.0000
v 0.254244 -0.210354 -0.075000 1.0000 0.0000 0.0000
v -0.000000 0.297964 0.095000 1.0000 1.0000 1.0000
v 0.635972 -0.430745 0.125000 0.0000 0.0000 1.0000
v 0.000000 0.670792 0.125000 1.0000 0.0000 0.0000
v -0.635972 -0.430745 0.125000 0.0000 1.0000 0.0000
v -0.381296 -0.283707 0.085000 1.0000 1.0000 1.0000
v 0.381296 -0.283707 0.085000 1.0000 1.0000 1.0000
v -0.000000 0.376717 0.085000 1.0000 1.0000 1.0000
v 0.000000 0.648381 -0.175000 0.0000 0.0000 1.0000
v 0.616564 -0.419539 -0.175000 0.0000 1.0000 0.0000
v -0.616564 -0.419539 -0.175000 1.0000 0.0000 0.0000
v -0.202934 -0.180730 -0.125000 1.0000 1.0000 1.0000
v 0.000000 0.170762 -0.125000 1.0000 1.0000 1.0000
v 0.202934 -0.180730 -0.125000 1.0000 1.0000 1.0000
v -0.181015 0.040943 -0.125000 1.0000 1.0000 1.0000
v 0.181015 0.040943 -0.125000 1.0000 1.0000 1.0000
v 0.000000 -0.272584 -0.125000 1.0000 1.0000 1.0000
v 0.848705 -0.553566 0.125000 0.0000 0.0000 1.0000
v 0.000000 0.916434 0.125000 0.9921 0.0039 0.0000
v -0.848705 -0.553566 0.125000 0.0000 1.0000 0.0000
v -0.010000 0.919114 -0.125000 0.9882 0.0118 0.0000
v 0.010000 0.919114 -0.125000 0.9882 0.0000 0.0078
v 0.000000 0.916729 -0.128420 0.9764 0.0078 0.0118
v -0.008972 0.920728 -0.125000 0.9882 0.0118 0.0000
v -0.007857 0.922160 -0.125000 0.9921 0.0078 0.0000
v -0.006667 0.923396 -0.125000 0.9921 0.0078 0.0000
v -0.005412 0.924423 -0.125000 0.9921 0.0078 0.0000
v -0.004105 0.925233 -0.125000 0.9921 0.0078 0.0000
v -0.002759 0.925817 -0.125000 0.9921 0.0078 0.0000
v -0.001386 0.926170 -0.125000 0.9960 0.0039 0.0000
v -0.000000 0.926288 -0.125000 0.9960 0.0000 0.0000
v 0.001386 0.926170 -0.125000 0.9960 0.0000 0.0000
v 0.002759 0.925817 -0.125000 0.9921 0.0000 0.0039
v 0.004105 0.925233 -0.125000 0.9921 0.0000 0.0039
v 0.005412 0.924423 -0.125000 0.9921 0.0000 0.0039
v 0.006667 0.923396 -0.125000 0.9921 0.0000 0.0039
v 0.007857 0.922160 -0.125000 0.9921 0.0000 0.0039
v 0.008972 0.920728 -0.125000 0.9882 0.0000 0.0039
v 0.856025 -0.546245 -0.125000 0.0000 0.0000 1.0000
v 0.846025 -0.563566 -0.125000 0.0000 0.0000 1.0000
v 0.848960 -0.553713 -0.128420 0.0000 0.0000 1.0000
v 0.856909 -0.547943 -0.125000 0.0000 0.0000 1.0000
v 0.857592 -0.549624 -0.125000 0.0000 0.0000 1.0000
v 0.858067 -0.551273 -0.125000 0.0000 0.0000 1.0000
v 0.858330 -0.552874 -0.125000 0.0000 0.0000 1.0000
v 0.858378 -0.554410 -0.125000 0.0000 0.0000 1.0000
v 0.858211 -0.555868 -0.125000 0.0000 0.0000 1.0000
v 0.857830 -0.557233 -0.125000 0.0000 0.0000 1.0000
v 0.857239 -0.558493 -0.125000 0.0000 0.0000 1.0000
v 0.856443 -0.559634 -0.125000 0.0000 0.0000 1.0000
v 0.855452 -0.560647 -0.125000 0.0000 0.0000 1.0000
v 0.854273 -0.561521 -0.125000 0.0000 0.0000 1.0000
v 0.852918 -0.562247 -0.125000 0.0000 0.0000 1.0000
v 0.851400 -0.562820 -0.125000 0.0000 0.0000 1.0000
v 0.849735 -0.563233 -0.125000 0.0000 0.0000 1.0000
v 0.847938 -0.563482 -0.125000 0.0000 0.0000 1.0000
v -0.846025 -0.563566 -0.125000 0.0000 1.0000 0.0000
v -0.856025 -0.546245 -0.125000 0.0000 1.0000 0.0000
v -0.848960 -0.553713 -0.128420 0.0000 1.0000 0.0000
v -0.847938 -0.563482 -0.125000 0.0000 1.0000 0.0000
v -0.849735 -0.563233 -0.125000 0.0000 1.0000 0.0000
v -0.851400 -0.562820 -0.125000 0.0000 1.0000 0.0000
v -0.852918 -0.562247 -0.125000 0.0000 1.0000 0.0000
v -0.854273 -0.561521 -0.125000 0.0000 1.0000 0.0000
v -0.855452 -0.560647 -0.125000 0.0000 1.0000 0.0000
v -0.856443 -0.559634 -0.125000 0.0000 1.0000 0.0000
v -0.857239 -0.558493 -0.125000 0.0000 1.0000 0.0000
v -0.857830 -0.557233 -0.125000 0.0000 1.0000 0.0000
v -0.858211 -0.555868 -0.125000 0.0000 1.0000 0.0000
v -0.858378 -0.554410 -0.125000 0.0000 1.0000 0.0000
v -0.858330 -0.552874 -0.125000 0.0000 1.0000 0.0000
v -0.858067 -0.551273 -0.125000 0.0000 1.0000 0.0000
v -0.857592 -0.549624 -0.125000 0.0000 1.0000 0.0000
v -0.856909 -0.547943 -0.125000 0.0000 1.0000 0.0000
v 0.846025 -0.563566 0.115000 0.0000 0.0000 1.0000
v 0.856025 -0.546245 0.115000 0.0000 0.0000 1.0000
v 0.850533 -0.554622 0.123944 0.0000 0.0000 1.0000
v 0.847938 -0.563482 0.115000 0.0000 0.0000 1.0000
v 0.849735 -0.563233 0.115000 0.0000 0.0000 1.0000
v 0.851400 -0.562820 0.115000 0.0000 0.0000 1.0000
v 0.852918 -0.562247 0.115000 0.0000 0.0000 1.0000
v 0.854273 -0.561521 0.115000 0.0000 0.0000 1.0000
v 0.855452 -0.560647 0.115000 0.0000 0.0000 1.0000
v 0.856443 -0.559634 0.115000 0.0000 0.0000 1.0000
v 0.857239 -0.558493 0.115000 0.0000 0.0000 1.0000
v 0.857830 -0.557233 0.115000 0.0000 0.0000 1.0000
v 0.858211 -0.555868 0.115000 0.0000 0.0000 1.0000
v 0.858378 -0.554410 0.115000 0.0000 0.0000 1.0000
v 0.858330 -0.552874 0.115000 0.0000 0.0000 1.0000
v 0.858067 -0.551273 0.115000 0.0000 0.0000 1.0000
v 0.857592 -0.549624 0.115000 0.0000 0.0000 1.0000
v 0.856909 -0.547943 0.115000 0.0000 0.0000 1.0000
v 0.010000 0.919114 0.115000 0.9882 0.0000 0.0078
v -0.010000 0.919114 0.115000 0.9882 0.0118 0.0000
v 0.000000 0.918546 0.123944 0.9882 0.0078 0.0000
v 0.008972 0.920728 0.115000 0.9882 0.0000 0.0039
v 0.007857 0.922160 0.115000 0.9921 0.0000 0.0039
v 0.006667 0.923396 0.115000 0.9921 0.0000 0.0039
v 0.005412 0.924423 0.115000 0.9921 0.0000 0.0039
v 0.004105 0.925233 0.115000 0.9921 0.0000 0.0039
v 0.002759 0.925817 0.115000 0.9921 0.0000 0.0039
v 0.001386 0.926170 0.115000 0.9960 0.0000 0.0000
v 0.000000 0.926288 0.115000 0.9960 0.0000 0.0000
v -0.001386 0.926170 0.115000 0.9960 0.0039 0.0000
v -0.002759 0.925817 0.115000 0.9921 0.0078 0.0000
v -0.004105 0.925233 0.115000 0.9921 0.0078 0.0000
v -0.005412 0.924423 0.115000 0.9921 0.0078 0.0000
v -0.006667 0.923396 0.115000 0.9921 0.0078 0.0000
v -0.007857 0.922160 0.115000 0.9921 0.0078 0.0000
v -0.008972 0.920728 0.115000 0.9882 0.0118 0.0000
v -0.856025 -0.546245 0.115000 0.0000 1.0000 0.0000
v -0.846025 -0.563566 0.115000 0.0000 1.0000 0.0000
v -0.850533 -0.554622 0.123944 0.0000 1.0000 0.0000
v -0.856909 -0.547943 0.115000 0.0000 1.0000 0.0000
v -0.857592 -0.549624 0.115000 0.0000 1.0000 0.0000
v -0.858067 -0.551273 0.115000 0.0000 1.0000 0.0000
v -0.858330 -0.552874 0.115000 0.0000 1.0000 0.0000
v -0.858378 -0.554410 0.115000 0.0000 1.0000 0.0000
v -0.858211 -0.555868 0.115000 0.0000 1.0000 0.0000
v -0.857830 -0.557233 0.115000 0.0000 1.0000 0.0000
v -0.857239 -0.558493 0.115000 0.0000 1.0000 0.0000
v -0.856443 -0.559634 0.115000 0.0000 1.0000 0.0000
v -0.855452 -0.560647 0.115000 0.0000 1.0000 0.0000
v -0.854273 -0.561521 0.115000 0.0000 1.0000 0.0000
v -0.852918 -0.562247 0.115000 0.0000 1.0000 0.0000
v -0.851400 -0.562820 0.115000 0.0000 1.0000 0.0000
v -0.849735 -0.563233 0.115000 0.0000 1.0000 0.0000
v -0.847938 -0.563482 0.115000 0.0000 1.0000 0.0000
vn -0.0000 -0.7071 0.7071
vn -0.0000 -0.0000 1.0000
vn 0.1219 -0.2694 0.9553
vn -0.0000 -0.3280 -0.9447
vn -0.2840 0.1640 -0.9447
vn -0.2273 -0.1312 0.9649
vn -0.0000 0.2625 0.9649
vn 0.2273 -0.1313 0.9649
vn -0.0000 -0.2461 0.9692
vn -0.2132 0.1231 0.9692
vn 0.2132 0.1231 0.9692
vn -0.8660 0.5000 -0.0000
vn -0.0000 -1.0000 -0.0000
vn 0.8660 0.5000 -0.0000
vn -0.3735 -0.2156 -0.9022
vn -0.0000 0.4313 -0.9022
vn 0.3735 -0.2156 -0.9022
vn -0.0000 -0.0000 -1.0000
vn 0.1723 0.2403 0.9553
vn -0.2943 0.0291 0.9553
vn -0.6124 0.3536 0.7071
vn 0.6124 0.3536 0.7071
vn -0.2801 0.1784 -0.9432
vn -0.2664 0.2074 -0.9413
vn -0.2456 0.2366 -0.9400
vn -0.2171 0.2650 -0.9395
vn -0.1803 0.2909 -0.9396
vn -0.1356 0.3126 -0.9401
vn -0.0844 0.3284 -0.9407
vn -0.0286 0.3368 -0.9412
vn 0.0286 0.3368 -0.9412
vn 0.0844 0.3284 -0.9407
vn 0.1356 0.3126 -0.9401
vn 0.1803 0.2909 -0.9396
vn 0.2171 0.2650 -0.9395
vn 0.2456 0.2366 -0.9400
vn 0.2664 0.2074 -0.9413
vn 0.2801 0.1784 -0.9432
vn 0.2945 0.1534 -0.9433
vn 0.3128 0.1270 -0.9413
vn 0.3278 0.0944 -0.9400
vn 0.3380 0.0555 -0.9395
vn 0.3421 0.0107 -0.9396
vn 0.3386 -0.0389 -0.9401
vn 0.3266 -0.0911 -0.9408
vn 0.3060 -0.1436 -0.9412
vn 0.2773 -0.1932 -0.9412
vn 0.2422 -0.2373 -0.9408
vn 0.2029 -0.2738 -0.9401
vn 0.1618 -0.3016 -0.9396
vn 0.1209 -0.3205 -0.9395
vn 0.0821 -0.3311 -0.9400
vn 0.0464 -0.3344 -0.9413
vn 0.0145 -0.3317 -0.9433
vn -0.0145 -0.3317 -0.9433
vn -0.0464 -0.3344 -0.9413
vn -0.0821 -0.3311 -0.9400
vn -0.1209 -0.3205 -0.9395
vn -0.1618 -0.3016 -0.9396
vn -0.2029 -0.2738 -0.9401
vn -0.2422 -0.2373 -0.9408
vn -0.2773 -0.1932 -0.9412
vn -0.3060 -0.1436 -0.9411
vn -0.3266 -0.0911 -0.9408
vn -0.3386 -0.0389 -0.9401
vn -0.3421 0.0107 -0.9396
vn -0.3380 0.0555 -0.9395
vn -0.3278 0.0944 -0.9400
vn -0.3128 0.1270 -0.9413
vn -0.2945 0.1533 -0.9433
vn 0.0312 -0.7146 0.6989
vn 0.1001 -0.7212 0.6855
vn 0.1778 -0.7168 0.6742
vn 0.2635 -0.6983 0.6656
vn 0.3554 -0.6624 0.6595
vn 0.4495 -0.6065 0.6558
vn 0.5405 -0.5295 0.6538
vn 0.6213 -0.4329 0.6532
vn 0.6856 -0.3217 0.6531
vn 0.7288 -0.2034 0.6539
vn 0.7500 -0.0861 0.6558
vn 0.7513 0.0235 0.6595
vn 0.7365 0.1209 0.6656
vn 0.7096 0.2045 0.6743
vn 0.6746 0.2739 0.6854
vn 0.6344 0.3303 0.6989
vn 0.6033 0.3843 0.6988
vn 0.5745 0.4473 0.6854
vn 0.5319 0.5123 0.6743
vn 0.4730 0.5773 0.6655
vn 0.3959 0.6390 0.6595
vn 0.3005 0.6926 0.6558
vn 0.1883 0.7328 0.6539
vn 0.0642 0.7545 0.6531
vn -0.0642 0.7545 0.6531
vn -0.1883 0.7328 0.6539
vn -0.3005 0.6926 0.6558
vn -0.3959 0.6390 0.6595
vn -0.4730 0.5773 0.6655
vn -0.5319 0.5123 0.6743
vn -0.5746 0.4473 0.6854
vn -0.6033 0.3843 0.6988
vn -0.6344 0.3303 0.6989
vn -0.6746 0.2739 0.6854
vn -0.7096 0.2045 0.6743
vn -0.7365 0.1209 0.6656
vn -0.7513 0.0235 0.6595
vn -0.7500 -0.0861 0.6558
vn -0.7288 -0.2034 0.6539
vn -0.6855 -0.3217 0.6531
vn -0.6213 -0.4329 0.6531
vn -0.5405 -0.5294 0.6539
vn -0.4495 -0.6065 0.6558
vn -0.3554 -0.6624 0.6595
vn -0.2635 -0.6983 0.6656
vn -0.1778 -0.7168 0.6742
vn -0.1001 -0.7212 0.6855
vn -0.0312 -0.7146 0.6989
vn -0.8434 0.5373 -0.0000
vn -0.7891 0.6143 -0.0000
vn -0.7202 0.6938 -0.0000
vn -0.6336 0.7737 -0.0000
vn -0.5268 0.8500 -0.0000
vn -0.3980 0.9174 -0.0000
vn -0.2490 0.9685 -0.0000
vn -0.0848 0.9964 -0.0000
vn 0.0846 0.9964 -0.0000
vn 0.2488 0.9686 -0.0000
vn 0.3980 0.9174 -0.0000
vn 0.5267 0.8501 -0.0000
vn 0.6338 0.7735 -0.0000
vn 0.7203 0.6937 -0.0000
vn 0.7890 0.6143 -0.0000
vn 0.8434 0.5373 -0.0000
vn 0.0436 -0.9991 -0.0000
vn 0.1374 -0.9905 -0.0000
vn 0.2407 -0.9706 -0.0000
vn 0.3531 -0.9356 -0.0000
vn 0.4727 -0.8812 -0.0000
vn 0.5955 -0.8034 -0.0000
vn 0.7144 -0.6998 -0.0000
vn 0.8205 -0.5716 -0.0000
vn 0.9053 -0.4248 -0.0000
vn 0.9632 -0.2688 -0.0000
vn 0.9935 -0.1140 -0.0000
vn 0.9995 0.0312 -0.0000
vn 0.9868 0.1620 -0.0000
vn 0.9609 0.2769 -0.0000
vn 0.9265 0.3762 -0.0000
vn 0.8870 0.4618 -0.0000
vn -0.8870 0.4618 -0.0000
vn -0.9265 0.3762 -0.0000
vn -0.9609 0.2769 -0.0000
vn -0.9868 0.1620 -0.0000
vn -0.9995 0.0312 -0.0000
vn -0.9935 -0.1140 -0.0000
vn -0.9632 -0.2688 -0.0000
vn -0.9053 -0.4248 -0.0000
vn -0.8205 -0.5716 -0.0000
vn -0.7144 -0.6998 -0.0000
vn -0.5955 -0.8034 -0.0000
vn -0.4727 -0.8812 -0.0000
vn -0.3531 -0.9356 -0.0000
vn -0.2407 -0.9706 -0.0000
vn -0.1374 -0.9905 -0.0000
vn -0.0436 -0.9991 -0.0000
vn 0.2840 0.1640 -0.9447
vn -0.0000 -0.8603 -0.5097
vn -0.2970 -0.6562 -0.6936
vn -0.2273 -0.1313 0.9649
vn 0.7451 0.4302 -0.5097
vn 0.7168 0.0709 -0.6936
vn -0.7451 0.4302 -0.5097
vn -0.4198 0.5854 -0.6936
vn -0.7890 0.6143 -0.0000
vn -0.7203 0.6937 -0.0000
vn -0.6338 0.7735 -0.0000
vn -0.5267 0.8501 -0.0000
vn -0.2488 0.9686 -0.0000
vn -0.0846 0.9964 -0.0000
vn 0.0848 0.9964 -0.0000
vn 0.2490 0.9685 -0.0000
vn 0.5268 0.8500 -0.0000
vn 0.6336 0.7737 -0.0000
vn 0.7202 0.6938 -0.0000
vn 0.7891 0.6143 -0.0000
s 0
f 116//1 81//1 24//1
f 9//2 22//2 7//2
f 4//2 2//2 6//2
f 8//2 24//2 9//2
f 1//3 21//3 18//3
f 14//4 44//4 63//4
f 15//5 62//5 27//5
f 11//6 7//6 8//6
f 10//7 9//7 7//7
f 12//8 8//8 9//8
f 4//9 11//9 2//9
f 4//10 12//10 10//10
f 6//11 11//11 12//11
f 115//12 25//12 62//12
f 79//13 61//13 44//13
f 97//14 43//14 26//14
f 3//15 13//15 14//15
f 5//16 14//16 15//16
f 1//17 15//17 13//17
f 17//18 18//18 16//18
f 5//19 20//19 17//19
f 3//20 19//20 16//20
f 98//21 117//21 23//21
f 80//22 99//22 22//22
f 8//2 22//2 23//2
f 25//23 28//23 27//23
f 28//24 29//24 27//24
f 29//25 30//25 27//25
f 30//26 31//26 27//26
f 31//27 32//27 27//27
f 32//28 33//28 27//28
f 33//29 34//29 27//29
f 34//30 35//30 27//30
f 35//31 36//31 27//31
f 36//32 37//32 27//32
f 37//33 38//33 27//33
f 38//34 39//34 27//34
f 39//35 40//35 27//35
f 40//36 41//36 27//36
f 41//37 42//37 27//37
f 42//38 26//38 27//38
f 43//39 46//39 45//39
f 46//40 47//40 45//40
f 47//41 48//41 45//41
f 48//42 49//42 45//42
f 49//43 50//43 45//43
f 50//44 51//44 45//44
f 51//45 52//45 45//45
f 52//46 53//46 45//46
f 53//47 54//47 45//47
f 54//48 55//48 45//48
f 55//49 56//49 45//49
f 56//50 57//50 45//50
f 57//51 58//51 45//51
f 58//52 59//52 45//52
f 59//53 60//53 45//53
f 60//54 44//54 45//54
f 61//55 64//55 63//55
f 64//56 65//56 63//56
f 65//57 66//57 63//57
f 66//58 67//58 63//58
f 67//59 68//59 63//59
f 68//60 69//60 63//60
f 69//61 70//61 63//61
f 70//62 71//62 63//62
f 71//63 72//63 63//63
f 72//64 73//64 63//64
f 73//65 74//65 63//65
f 74//66 75//66 63//66
f 75//67 76//67 63//67
f 76//68 77//68 63//68
f 77//69 78//69 63//69
f 78//70 62//70 63//70
f 79//71 82//71 81//71
f 82//72 83//72 81//72
f 83//73 84//73 81//73
f 84//74 85//74 81//74
f 85//75 86//75 81//75
f 86//76 87//76 81//76
f 87//77 88//77 81//77
f 88//78 89//78 81//78
f 89//79 90//79 81//79
f 90//80 91//80 81//80
f 91//81 92//81 81//81
f 92//82 93//82 81//82
f 93//83 94//83 81//83
f 94//84 95//84 81//84
f 95//85 96//85 81//85
f 96//86 80//86 81//86
f 97//87 100//87 99//87
f 100//88 101//88 99//88
f 101//89 102//89 99//89
f 102//90 103//90 99//90
f 103//91 104//91 99//91
f 104//92 105//92 99//92
f 105//93 106//93 99//93
f 106//94 107//94 99//94
f 107//95 108//95 99//95
f 108//96 109//96 99//96
f 109//97 110//97 99//97
f 110//98 111//98 99//98
f 111//99 112//99 99//99
f 112//100 113//100 99//100
f 113//101 114//101 99//101
f 114//102 98//102 99//102
f 115//103 118//103 117//103
f 118//104 119//104 117//104
f 119//105 120//105 117//105
f 120//106 121//106 117//106
f 121//107 122//107 117//107
f 122//108 123//108 117//108
f 123//109 124//109 117//109
f 124//110 125//110 117//110
f 125//111 126//111 117//111
f 126//112 127//112 117//112
f 127//113 128//113 117//113
f 128//114 129//114 117//114
f 129//115 130//115 117//115
f 130//116 131//116 117//116
f 131//117 132//117 117//117
f 132//118 116//118 117//118
f 98//119 28//119 25//119
f 114//120 29//120 28//120
f 113//121 30//121 29//121
f 112//122 31//122 30//122
f 111//123 32//123 31//123
f 110//124 33//124 32//124
f 109//125 34//125 33//125
f 108//126 35//126 34//126
f 107//127 36//127 35//127
f 106//128 37//128 36//128
f 105//129 38//129 37//129
f 104//130 39//130 38//130
f 103//131 40//131 39//131
f 102//132 41//132 40//132
f 101//133 42//133 41//133
f 100//134 26//134 42//134
f 44//135 82//135 79//135
f 60//136 83//136 82//136
f 59//137 84//137 83//137
f 58//138 85//138 84//138
f 57//139 86//139 85//139
f 56//140 87//140 86//140
f 55//141 88//141 87//141
f 54//142 89//142 88//142
f 53//143 90//143 89//143
f 52//144 91//144 90//144
f 51//145 92//145 91//145
f 50//146 93//146 92//146
f 49//147 94//147 93//147
f 48//148 95//148 94//148
f 47//149 96//149 95//149
f 46//150 80//150 96//150
f 62//151 118//151 115//151
f 78//152 119//152 118//152
f 77//153 120//153 119//153
f 76//154 121//154 120//154
f 75//155 122//155 121//155
f 74//156 123//156 122//156
f 73//157 124//157 123//157
f 72//158 125//158 124//158
f 71//159 126//159 125//159
f 70//160 127//160 126//160
f 69//161 128//161 127//161
f 68//162 129//162 128//162
f 67//163 130//163 129//163
f 66//164 131//164 130//164
f 65//165 132//165 131//165
f 64//166 116//166 132//166
f 13//167 26//167 45//167
f 24//1 117//1 116//1
f 116//1 79//1 81//1
f 81//1 22//1 24//1
f 9//2 24//2 22//2
f 8//2 23//2 24//2
f 18//168 5//168 1//168
f 1//169 16//169 21//169
f 63//4 15//4 14//4
f 14//4 45//4 44//4
f 44//4 61//4 63//4
f 27//5 13//5 15//5
f 15//5 63//5 62//5
f 62//5 25//5 27//5
f 11//7 10//7 7//7
f 10//8 12//8 9//8
f 12//170 11//170 8//170
f 4//9 10//9 11//9
f 4//10 6//10 12//10
f 6//11 2//11 11//11
f 115//12 98//12 25//12
f 79//13 116//13 61//13
f 97//14 80//14 43//14
f 3//17 1//17 13//17
f 5//15 3//15 14//15
f 1//16 5//16 15//16
f 16//18 19//18 17//18
f 17//18 20//18 18//18
f 18//18 21//18 16//18
f 17//171 3//171 5//171
f 5//172 18//172 20//172
f 16//173 1//173 3//173
f 3//174 17//174 19//174
f 23//21 99//21 98//21
f 98//21 115//21 117//21
f 117//21 24//21 23//21
f 22//22 81//22 80//22
f 80//22 97//22 99//22
f 99//22 23//22 22//22
f 8//2 7//2 22//2
f 98//119 114//119 28//119
f 114//175 113//175 29//175
f 113//176 112//176 30//176
f 112//177 111//177 31//177
f 111//178 110//178 32//178
f 110//124 109//124 33//124
f 109//179 108//179 34//179
f 108//180 107//180 35//180
f 107//181 106//181 36//181
f 106//182 105//182 37//182
f 105//129 104//129 38//129
f 104//183 103//183 39//183
f 103//184 102//184 40//184
f 102//185 101//185 41//185
f 101//186 100//186 42//186
f 100//134 97//134 26//134
f 44//135 60//135 82//135
f 60//136 59//136 83//136
f 59//137 58//137 84//137
f 58//138 57//138 85//138
f 57//139 56//139 86//139
f 56//140 55//140 87//140
f 55//141 54//141 88//141
f 54//142 53//142 89//142
f 53//143 52//143 90//143
f 52//144 51//144 91//144
f 51//145 50//145 92//145
f 50//146 49//146 93//146
f 49//147 48//147 94//147
f 48//148 47//148 95//148
f 47//149 46//149 96//149
f 46//150 43//150 80//150
f 62//151 78//151 118//151
f 78//152 77//152 119//152
f 77//153 76//153 120//153
f 76//154 75//154 121//154
f 75//155 74//155 122//155
f 74//156 73//156 123//156
f 73//157 72//157 124//157
f 72//158 71//158 125//158
f 71//159 70//159 126//159
f 70//160 69//160 127//160
f 69//161 68//161 128//161
f 68//162 67//162 129//162
f 67//163 66//163 130//163
f 66//164 65//164 131//164
f 65//165 64//165 132//165
f 64//166 61//166 116//166
f 45//167 14//167 13//167
f 13//167 27//167 26//167
f 26//167 43//167 45//167
